<svg width="407" height="221" viewBox="0 0 407 221" fill="none" xmlns="http://www.w3.org/2000/svg">
<path d="M80.5 21.846H8.625V18.9229L71.875 13.7783V18.9229H80.5V10.1536C80.5 3.72286 75.3767 -0.790386 69.1207 0.11577L11.385 8.49918C5.12325 9.41118 0 15.4152 0 21.846V80.3077C0 83.4087 1.2116 86.3827 3.36827 88.5754C5.52494 90.7681 8.45001 92 11.5 92H80.5C83.55 92 86.4751 90.7681 88.6317 88.5754C90.7884 86.3827 92 83.4087 92 80.3077V33.5383C92 30.4373 90.7884 27.4633 88.6317 25.2706C86.4751 23.0778 83.55 21.846 80.5 21.846ZM71.875 62.8042C70.742 62.8038 69.6201 62.5766 68.5735 62.1354C67.5268 61.6942 66.5759 61.0477 65.775 60.2329C64.9741 59.418 64.3389 58.4508 63.9057 57.3863C63.4724 56.3219 63.2496 55.1811 63.25 54.0291C63.2504 52.8772 63.4739 51.7365 63.9079 50.6724C64.3418 49.6082 64.9776 48.6414 65.7791 47.8271C66.5805 47.0128 67.5319 46.367 68.5788 45.9265C69.6257 45.486 70.7477 45.2595 71.8808 45.2599C74.169 45.2607 76.3632 46.1856 77.9807 47.8313C79.5982 49.4769 80.5065 51.7085 80.5057 54.035C80.505 56.3615 79.5953 58.5924 77.9767 60.237C76.3581 61.8815 74.1632 62.805 71.875 62.8042Z" fill="#696868"/>
<path d="M326.5 21.846H398.375V18.9229L335.125 13.7783V18.9229H326.5V10.1536C326.5 3.72286 331.623 -0.790386 337.879 0.11577L395.615 8.49918C401.877 9.41118 407 15.4152 407 21.846V80.3077C407 83.4087 405.788 86.3827 403.632 88.5754C401.475 90.7681 398.55 92 395.5 92H326.5C323.45 92 320.525 90.7681 318.368 88.5754C316.212 86.3827 315 83.4087 315 80.3077V33.5383C315 30.4373 316.212 27.4633 318.368 25.2706C320.525 23.0778 323.45 21.846 326.5 21.846ZM335.125 62.8042C336.258 62.8038 337.38 62.5766 338.427 62.1354C339.473 61.6942 340.424 61.0477 341.225 60.2329C342.026 59.418 342.661 58.4508 343.094 57.3863C343.528 56.3219 343.75 55.1811 343.75 54.0291C343.75 52.8772 343.526 51.7365 343.092 50.6724C342.658 49.6082 342.022 48.6414 341.221 47.8271C340.419 47.0128 339.468 46.367 338.421 45.9265C337.374 45.486 336.252 45.2595 335.119 45.2599C332.831 45.2607 330.637 46.1856 329.019 47.8313C327.402 49.4769 326.493 51.7085 326.494 54.035C326.495 56.3615 327.405 58.5924 329.023 60.237C330.642 61.8815 332.837 62.805 335.125 62.8042Z" fill="#696868"/>
<path d="M194.152 218.32C196.569 220.012 199.56 220.674 202.466 220.161C205.372 219.648 207.956 218.002 209.648 215.584C209.939 215.17 210.146 214.702 210.256 214.208C210.366 213.714 210.377 213.202 210.289 212.704C210.2 212.205 210.015 211.729 209.742 211.302C209.469 210.876 209.115 210.507 208.699 210.218L199.788 200.83L220.125 215.064C220.902 215.61 221.778 215.997 222.705 216.203C223.632 216.409 224.59 216.43 225.525 216.265C226.46 216.1 227.353 215.752 228.153 215.241C228.953 214.729 229.645 214.065 230.187 213.286C230.731 212.509 231.117 211.632 231.322 210.706C231.527 209.779 231.548 208.821 231.383 207.887C231.218 206.952 230.87 206.06 230.36 205.26C229.85 204.46 229.187 203.768 228.41 203.224L211.088 187.304L236.979 205.43C237.756 205.976 238.633 206.363 239.56 206.569C240.486 206.775 241.445 206.796 242.38 206.631C243.315 206.466 244.208 206.118 245.008 205.607C245.808 205.096 246.499 204.431 247.042 203.652C247.586 202.875 247.972 201.998 248.177 201.072C248.382 200.145 248.402 199.187 248.237 198.253C248.072 197.319 247.725 196.426 247.215 195.626C246.705 194.826 246.042 194.134 245.264 193.59L222.307 173.97L250.553 193.744C251.33 194.29 252.207 194.677 253.134 194.883C254.061 195.089 255.019 195.11 255.954 194.945C256.889 194.78 257.782 194.432 258.582 193.921C259.382 193.41 260.073 192.745 260.616 191.966C261.16 191.189 261.546 190.312 261.751 189.386C261.956 188.459 261.976 187.501 261.811 186.567C261.646 185.633 261.299 184.74 260.789 183.94C260.279 183.14 259.616 182.448 258.839 181.904L137.817 126.138L121.117 152.732C119.243 155.623 119.754 159.539 122.446 161.841L159.951 193.975C161.661 195.44 163.439 196.822 165.284 198.113L194.152 218.32Z" fill="#B78B60"/>
<path d="M258.574 176.995L204.132 137.732L203.848 137.347L204.104 136.962L204.359 136.706L208.473 138.965C213.087 141.952 223.632 146.364 231.623 146.364C237.09 146.364 240.366 144.317 241.343 140.309C241.641 138.538 241.224 136.721 240.183 135.256C239.143 133.792 237.565 132.799 235.794 132.496C230.961 131.775 226.35 129.979 222.302 127.241L219.629 125.444C216.623 123.416 213.217 121.119 210.703 119.635C207.572 117.737 204.166 116.817 200.284 116.817C194.523 116.817 188.67 118.85 183.015 120.815L176.917 122.915C174.285 123.802 171.524 124.243 168.747 124.221C161.31 124.221 154.031 121.398 146.994 118.672L146.286 118.392C144.837 117.838 143.241 117.803 141.77 118.295C140.299 118.787 139.045 119.775 138.222 121.09L121.522 147.694C120.671 149.02 120.328 150.608 120.556 152.166C120.783 153.725 121.566 155.149 122.76 156.176L160.26 188.315C161.955 189.765 163.737 191.148 165.558 192.419L195.255 213.209C196.291 213.935 197.461 214.45 198.696 214.724C199.931 214.998 201.209 215.026 202.455 214.807C203.701 214.587 204.892 214.124 205.959 213.444C207.026 212.764 207.949 211.881 208.675 210.844C209.259 210.006 209.487 208.97 209.31 207.964C209.133 206.958 208.566 206.062 207.731 205.473L198.901 199.293C198.67 199.131 198.476 198.922 198.33 198.681C198.183 198.44 198.089 198.171 198.052 197.891C198.014 197.611 198.036 197.327 198.114 197.056C198.192 196.785 198.326 196.533 198.506 196.316C198.833 195.924 199.295 195.669 199.801 195.602C200.307 195.535 200.82 195.661 201.237 195.955L220.404 209.37C221.869 210.396 223.682 210.798 225.444 210.487C227.205 210.176 228.771 209.178 229.797 207.713C230.823 206.248 231.225 204.435 230.914 202.673C230.603 200.912 229.606 199.346 228.14 198.32L210.202 185.767C209.971 185.605 209.776 185.396 209.63 185.155C209.484 184.914 209.389 184.645 209.352 184.365C209.315 184.085 209.336 183.801 209.415 183.53C209.493 183.259 209.626 183.007 209.807 182.79C210.134 182.399 210.596 182.145 211.102 182.078C211.608 182.011 212.12 182.136 212.538 182.429L237.259 199.736C237.984 200.244 238.803 200.604 239.667 200.796C240.532 200.988 241.426 201.007 242.298 200.853C243.171 200.699 244.004 200.375 244.751 199.899C245.498 199.423 246.144 198.805 246.652 198.079C247.16 197.354 247.52 196.535 247.711 195.67C247.903 194.806 247.922 193.912 247.769 193.039C247.615 192.167 247.291 191.334 246.815 190.587C246.339 189.84 245.72 189.194 244.995 188.686L221.546 172.275C221.313 172.114 221.116 171.906 220.969 171.665C220.821 171.423 220.726 171.154 220.69 170.873C220.653 170.592 220.675 170.307 220.756 170.036C220.836 169.765 220.972 169.513 221.156 169.298C221.448 168.949 221.861 168.723 222.312 168.664C222.764 168.605 223.221 168.718 223.593 168.98L250.838 188.05C251.564 188.558 252.382 188.918 253.247 189.11C254.112 189.301 255.007 189.321 255.879 189.166C256.752 189.012 257.585 188.688 258.332 188.212C259.079 187.735 259.725 187.117 260.233 186.391C260.741 185.665 261.101 184.846 261.293 183.981C261.484 183.116 261.503 182.222 261.349 181.349C261.195 180.477 260.871 179.643 260.395 178.896C259.918 178.149 259.3 177.503 258.574 176.995Z" fill="#D4AB88"/>
<path d="M194.672 206.75C194.335 208.036 193.675 209.149 192.798 210.03L187.962 214.828C187.076 215.724 185.971 216.372 184.756 216.706C183.541 217.041 182.26 217.051 181.04 216.735C179.809 216.415 178.684 215.775 177.779 214.88C176.874 213.985 176.222 212.867 175.888 211.639C175.554 210.411 175.551 209.116 175.878 207.887C176.204 206.657 176.85 205.535 177.75 204.635L182.586 199.837C183.472 198.941 184.578 198.293 185.792 197.959C187.007 197.624 188.288 197.614 189.508 197.93C191.361 198.417 192.946 199.619 193.914 201.272C194.882 202.926 195.155 204.895 194.672 206.75ZM143.882 183.045L151.122 175.834C151.95 175.008 152.564 173.992 152.913 172.875C153.262 171.759 153.334 170.574 153.124 169.423C152.913 168.272 152.426 167.189 151.705 166.268C150.984 165.347 150.05 164.615 148.983 164.134C147.647 163.533 146.159 163.354 144.718 163.621C143.277 163.888 141.952 164.588 140.92 165.627L133.68 172.838C132.852 173.665 132.238 174.681 131.889 175.798C131.541 176.915 131.469 178.1 131.68 179.251C131.891 180.402 132.378 181.485 133.1 182.406C133.821 183.327 134.756 184.059 135.823 184.539C137.159 185.138 138.646 185.316 140.086 185.049C141.525 184.783 142.849 184.084 143.882 183.045ZM168.949 183.296C169.659 182.634 170.227 181.836 170.621 180.949C171.015 180.062 171.227 179.105 171.243 178.135C171.259 177.165 171.08 176.201 170.716 175.302C170.351 174.403 169.81 173.586 169.123 172.9C168.436 172.215 167.618 171.675 166.718 171.312C165.818 170.95 164.855 170.772 163.884 170.79C162.914 170.808 161.958 171.022 161.072 171.417C160.186 171.813 159.389 172.383 158.728 173.094L144.267 187.535C143.558 188.197 142.989 188.995 142.595 189.882C142.201 190.769 141.99 191.726 141.974 192.696C141.957 193.666 142.137 194.629 142.501 195.529C142.865 196.428 143.407 197.245 144.094 197.93C144.781 198.616 145.598 199.156 146.498 199.518C147.398 199.881 148.362 200.059 149.332 200.041C150.302 200.023 151.259 199.809 152.145 199.414C153.031 199.018 153.828 198.448 154.489 197.737L168.949 183.296ZM179.788 197.747C180.763 196.77 181.438 195.534 181.732 194.185C182.027 192.836 181.929 191.431 181.45 190.137C180.971 188.842 180.131 187.711 179.03 186.879C177.929 186.046 176.612 185.547 175.236 185.439C174.196 185.361 173.152 185.51 172.177 185.876C171.201 186.242 170.317 186.816 169.585 187.559L159.927 197.169C158.951 198.146 158.275 199.382 157.979 200.732C157.684 202.081 157.781 203.487 158.26 204.783C158.739 206.078 159.58 207.21 160.682 208.042C161.784 208.875 163.102 209.374 164.479 209.481C166.671 209.654 168.689 208.802 170.13 207.361L179.788 197.747ZM259.532 177.819L262.553 175.208L229.253 122.944L170.149 132.506C169.209 132.665 168.309 133.007 167.502 133.513C166.694 134.02 165.994 134.68 165.441 135.457C164.889 136.234 164.495 137.112 164.282 138.042C164.069 138.971 164.041 139.933 164.2 140.873C167.369 153.855 193.116 144.211 204.446 137.978L259.532 177.819Z" fill="#B78B60"/>
<path d="M194.672 201.933C194.335 203.219 193.675 204.332 192.798 205.213L187.962 210.011C187.076 210.907 185.971 211.555 184.756 211.889C183.541 212.224 182.26 212.234 181.04 211.918C179.809 211.598 178.684 210.958 177.779 210.063C176.874 209.168 176.222 208.05 175.888 206.822C175.554 205.594 175.551 204.299 175.878 203.07C176.204 201.84 176.85 200.718 177.75 199.818L182.586 195.02C183.472 194.124 184.578 193.477 185.792 193.142C187.007 192.807 188.288 192.797 189.508 193.113C191.361 193.6 192.946 194.802 193.914 196.455C194.882 198.109 195.155 200.079 194.672 201.933ZM143.882 178.229L151.122 171.018C151.95 170.191 152.564 169.175 152.913 168.058C153.262 166.942 153.334 165.757 153.124 164.606C152.913 163.455 152.426 162.372 151.705 161.451C150.984 160.53 150.05 159.798 148.983 159.317C147.646 158.717 146.159 158.539 144.718 158.806C143.278 159.073 141.953 159.772 140.92 160.81L133.68 168.021C132.852 168.849 132.238 169.864 131.889 170.981C131.541 172.098 131.469 173.283 131.68 174.434C131.891 175.585 132.378 176.668 133.1 177.589C133.821 178.51 134.756 179.242 135.823 179.722C137.159 180.321 138.646 180.499 140.086 180.232C141.525 179.966 142.849 179.267 143.882 178.229ZM168.949 178.479C169.659 177.817 170.227 177.019 170.621 176.132C171.015 175.245 171.227 174.288 171.243 173.318C171.259 172.348 171.08 171.384 170.716 170.485C170.351 169.586 169.81 168.769 169.123 168.084C168.436 167.398 167.618 166.858 166.718 166.495C165.818 166.133 164.855 165.955 163.884 165.973C162.914 165.991 161.958 166.205 161.072 166.6C160.186 166.996 159.389 167.566 158.728 168.277L144.267 182.718C143.558 183.38 142.989 184.178 142.595 185.065C142.201 185.952 141.99 186.909 141.974 187.879C141.957 188.849 142.137 189.812 142.501 190.712C142.865 191.611 143.407 192.428 144.094 193.113C144.781 193.799 145.598 194.339 146.498 194.702C147.398 195.064 148.362 195.242 149.332 195.224C150.302 195.206 151.259 194.992 152.145 194.597C153.031 194.201 153.828 193.631 154.489 192.92L168.949 178.479ZM179.788 192.93C180.763 191.953 181.437 190.717 181.732 189.368C182.027 188.019 181.929 186.614 181.45 185.32C180.971 184.025 180.131 182.894 179.03 182.062C177.929 181.229 176.612 180.73 175.236 180.623C174.196 180.544 173.152 180.693 172.177 181.059C171.201 181.425 170.317 181.999 169.585 182.742L159.927 192.352C158.951 193.329 158.274 194.565 157.979 195.915C157.684 197.264 157.781 198.67 158.26 199.966C158.739 201.261 159.58 202.393 160.682 203.225C161.784 204.058 163.102 204.557 164.479 204.664C166.671 204.837 168.689 203.985 170.13 202.545L179.788 192.93ZM283.627 157.015C284.902 155.912 285.736 154.386 285.974 152.717C286.212 151.048 285.839 149.35 284.922 147.935L284.908 147.911L268.208 116.499C267.326 115.09 265.982 114.031 264.405 113.504C262.829 112.977 261.118 113.014 259.566 113.609C249.971 117.323 239.46 121.591 229.258 118.123L223.969 116.307C214.585 113.055 204.383 109.245 195.067 114.89C191.719 116.86 186.695 120.348 183.453 122.501C179.448 125.176 174.908 126.945 170.149 127.684C169.207 127.84 168.306 128.18 167.497 128.686C166.687 129.191 165.986 129.852 165.433 130.63C164.88 131.407 164.487 132.287 164.275 133.217C164.063 134.148 164.038 135.111 164.2 136.051C167.153 148.151 189.73 140.425 201.955 134.274C202.718 133.891 203.572 133.724 204.423 133.793C205.274 133.862 206.09 134.163 206.782 134.664L262.581 175.203L283.627 157.015Z" fill="#CC9B7A"/>
</svg>
